<?xml version="1.0" encoding="UTF-8"?>
<svg id="Layer_1" data-name="Layer 1" xmlns="http://www.w3.org/2000/svg" version="1.1" viewBox="0 0 24 24">
  <defs>
    <style>
      .cls-1 {
        fill-rule: evenodd;
      }

      .cls-1, .cls-2 {
        fill: #ff7c53;
        stroke-width: 0px;
      }
    </style>
  </defs>
  <path class="cls-2" d="M15.1,11.9l1.5-1.5-4.6-4.6-4.6,4.6,1.5,1.5,2-2v8.2h2.2v-8.2l2,2Z"/>
  <path class="cls-1" d="M20.5,3.5C15.8-1.2,8.2-1.2,3.5,3.5-1.2,8.2-1.2,15.8,3.5,20.5c4.7,4.7,12.3,4.7,17,0,4.7-4.7,4.7-12.3,0-17ZM18.9,5.1c-3.8-3.8-10.1-3.8-13.9,0-3.8,3.8-3.8,10.1,0,13.9,3.8,3.8,10.1,3.8,13.9,0,3.8-3.8,3.8-10.1,0-13.9Z"/>
</svg>